<mxfile host="app.diagrams.net" modified="2022-08-01T11:18:58.053Z" agent="5.0 (Windows NT 10.0; Win64; x64) AppleWebKit/537.36 (KHTML, like Gecko) Chrome/103.0.0.0 Safari/537.36" etag="o0r8Iyw-kHaZzWB5WqMs" version="20.2.2" type="github">
  <diagram id="1Dt9sVHgSxZ8UNngOF6X" name="Page-1">
    <mxGraphModel dx="1422" dy="754" grid="1" gridSize="10" guides="1" tooltips="1" connect="1" arrows="1" fold="1" page="1" pageScale="1" pageWidth="827" pageHeight="1169" math="0" shadow="0">
      <root>
        <mxCell id="0" />
        <mxCell id="1" parent="0" />
        <mxCell id="b72W71Ku188Hy7LwLDYq-17" value="" style="rounded=0;whiteSpace=wrap;html=1;strokeColor=none;" vertex="1" parent="1">
          <mxGeometry x="150" y="110" width="460" height="140" as="geometry" />
        </mxCell>
        <mxCell id="b72W71Ku188Hy7LwLDYq-7" style="edgeStyle=orthogonalEdgeStyle;rounded=0;orthogonalLoop=1;jettySize=auto;html=1;exitX=1;exitY=0.25;exitDx=0;exitDy=0;entryX=0;entryY=0.25;entryDx=0;entryDy=0;" edge="1" parent="1" source="b72W71Ku188Hy7LwLDYq-1" target="b72W71Ku188Hy7LwLDYq-2">
          <mxGeometry relative="1" as="geometry" />
        </mxCell>
        <mxCell id="b72W71Ku188Hy7LwLDYq-1" value="Initiating" style="rounded=0;whiteSpace=wrap;html=1;" vertex="1" parent="1">
          <mxGeometry x="160" y="160" width="80" height="40" as="geometry" />
        </mxCell>
        <mxCell id="b72W71Ku188Hy7LwLDYq-8" style="edgeStyle=orthogonalEdgeStyle;rounded=0;orthogonalLoop=1;jettySize=auto;html=1;exitX=0.25;exitY=0;exitDx=0;exitDy=0;entryX=0;entryY=0.25;entryDx=0;entryDy=0;" edge="1" parent="1" source="b72W71Ku188Hy7LwLDYq-2" target="b72W71Ku188Hy7LwLDYq-3">
          <mxGeometry relative="1" as="geometry" />
        </mxCell>
        <mxCell id="b72W71Ku188Hy7LwLDYq-12" style="edgeStyle=orthogonalEdgeStyle;rounded=0;orthogonalLoop=1;jettySize=auto;html=1;exitX=0;exitY=0.75;exitDx=0;exitDy=0;entryX=1;entryY=0.75;entryDx=0;entryDy=0;" edge="1" parent="1" source="b72W71Ku188Hy7LwLDYq-2" target="b72W71Ku188Hy7LwLDYq-1">
          <mxGeometry relative="1" as="geometry" />
        </mxCell>
        <mxCell id="b72W71Ku188Hy7LwLDYq-13" style="edgeStyle=orthogonalEdgeStyle;rounded=0;orthogonalLoop=1;jettySize=auto;html=1;exitX=0.5;exitY=1;exitDx=0;exitDy=0;entryX=0;entryY=0.5;entryDx=0;entryDy=0;" edge="1" parent="1" source="b72W71Ku188Hy7LwLDYq-2" target="b72W71Ku188Hy7LwLDYq-4">
          <mxGeometry relative="1" as="geometry" />
        </mxCell>
        <mxCell id="b72W71Ku188Hy7LwLDYq-2" value="Planning" style="rounded=0;whiteSpace=wrap;html=1;" vertex="1" parent="1">
          <mxGeometry x="280" y="160" width="80" height="40" as="geometry" />
        </mxCell>
        <mxCell id="b72W71Ku188Hy7LwLDYq-9" style="edgeStyle=orthogonalEdgeStyle;rounded=0;orthogonalLoop=1;jettySize=auto;html=1;exitX=1;exitY=0.25;exitDx=0;exitDy=0;entryX=0.5;entryY=0;entryDx=0;entryDy=0;" edge="1" parent="1" source="b72W71Ku188Hy7LwLDYq-3" target="b72W71Ku188Hy7LwLDYq-5">
          <mxGeometry relative="1" as="geometry" />
        </mxCell>
        <mxCell id="b72W71Ku188Hy7LwLDYq-14" style="edgeStyle=orthogonalEdgeStyle;rounded=0;orthogonalLoop=1;jettySize=auto;html=1;exitX=0;exitY=0.75;exitDx=0;exitDy=0;entryX=0.75;entryY=0;entryDx=0;entryDy=0;" edge="1" parent="1" source="b72W71Ku188Hy7LwLDYq-3" target="b72W71Ku188Hy7LwLDYq-2">
          <mxGeometry relative="1" as="geometry">
            <Array as="points">
              <mxPoint x="340" y="150" />
            </Array>
          </mxGeometry>
        </mxCell>
        <mxCell id="b72W71Ku188Hy7LwLDYq-16" style="edgeStyle=orthogonalEdgeStyle;rounded=0;orthogonalLoop=1;jettySize=auto;html=1;exitX=0.75;exitY=1;exitDx=0;exitDy=0;entryX=0.75;entryY=0;entryDx=0;entryDy=0;" edge="1" parent="1" source="b72W71Ku188Hy7LwLDYq-3" target="b72W71Ku188Hy7LwLDYq-4">
          <mxGeometry relative="1" as="geometry" />
        </mxCell>
        <mxCell id="b72W71Ku188Hy7LwLDYq-3" value="Controlling" style="rounded=0;whiteSpace=wrap;html=1;" vertex="1" parent="1">
          <mxGeometry x="400" y="120" width="80" height="40" as="geometry" />
        </mxCell>
        <mxCell id="b72W71Ku188Hy7LwLDYq-11" style="edgeStyle=orthogonalEdgeStyle;rounded=0;orthogonalLoop=1;jettySize=auto;html=1;exitX=1;exitY=0.75;exitDx=0;exitDy=0;entryX=0.5;entryY=1;entryDx=0;entryDy=0;" edge="1" parent="1" source="b72W71Ku188Hy7LwLDYq-4" target="b72W71Ku188Hy7LwLDYq-5">
          <mxGeometry relative="1" as="geometry" />
        </mxCell>
        <mxCell id="b72W71Ku188Hy7LwLDYq-15" style="edgeStyle=orthogonalEdgeStyle;rounded=0;orthogonalLoop=1;jettySize=auto;html=1;exitX=0.25;exitY=0;exitDx=0;exitDy=0;entryX=0.25;entryY=1;entryDx=0;entryDy=0;" edge="1" parent="1" source="b72W71Ku188Hy7LwLDYq-4" target="b72W71Ku188Hy7LwLDYq-3">
          <mxGeometry relative="1" as="geometry" />
        </mxCell>
        <mxCell id="b72W71Ku188Hy7LwLDYq-4" value="Implementing" style="rounded=0;whiteSpace=wrap;html=1;" vertex="1" parent="1">
          <mxGeometry x="400" y="200" width="80" height="40" as="geometry" />
        </mxCell>
        <mxCell id="b72W71Ku188Hy7LwLDYq-5" value="Closing" style="rounded=0;whiteSpace=wrap;html=1;" vertex="1" parent="1">
          <mxGeometry x="520" y="160" width="80" height="40" as="geometry" />
        </mxCell>
      </root>
    </mxGraphModel>
  </diagram>
</mxfile>
